<?xml version="1.0" encoding="UTF-8"?>
<svg xmlns="http://www.w3.org/2000/svg" width="256" height="256" viewBox="0 0 256 256">
  <path fill="#76B900" d="M249.5 25.2c-2.3-9.5-9.5-16.7-19-19c-9.5-2.3-19 0-25.9 6.9c-1.1 1.1-2 2.3-2.9 3.4l-96.6 119.7c-5.7 7.5-16.7 7.5-22.4 0c-2.9-3.4-4-8-2.9-12.6c1.1-4.6 4.6-8 8.6-9.7l33.3-14.9c6.3-2.9 10.3-9.2 10.3-16.1V32.1c0-9.7-5.7-18.4-14.9-21.8C108.5 6.3 98.8 8.6 92 16.1C61.5 52.5 30.4 88.4 0 124.8v57.6c0 9.7 5.7 18.4 14.9 21.8c9.2 3.4 19 1.1 25.9-6.3c30.4-36.4 61.5-72.3 91.9-108.7c5.7-6.9 16.7-6.9 22.4 0c2.9 3.4 4 8 2.9 12.6c-1.1 4.6-4.6 8-8.6 9.7l-33.3 14.9c-6.3 2.9-10.3 9.2-10.3 16.1v50.7c0 9.7 5.7 18.4 14.9 21.8c9.2 3.4 19 1.1 25.9-6.3c30.4-36.4 61.5-72.3 91.9-108.7c1.1-1.1 2-2.3 2.9-3.4c6.9-6.9 9.2-16.7 6.9-25.9l.1-.1Z"/>
</svg>
