<svg xmlns="http://www.w3.org/2000/svg" viewBox="0 0 24 24" fill="#212C42">
  <path d="M10.705 0C7.54 0 4.902 2.285 4.349 5.291a4.525 4.525 0 0 0-4.107 4.5 4.525 4.525 0 0 0 4.52 4.52h6.761a.625.625 0 1 0 0-1.25H4.761a3.273 3.273 0 0 1-3.27-3.27 3.273 3.273 0 0 1 3.027-3.256.625.625 0 0 0 .54-.694 5.082 5.082 0 0 1-.098-.978c0-2.818 2.295-5.113 5.113-5.113a5.12 5.12 0 0 1 4.836 3.465.625.625 0 0 0 .848.344 3.274 3.274 0 0 1 4.339 3.09 3.273 3.273 0 0 1-3.27 3.27h-3.27a.625.625 0 1 0 0 1.25h3.27A4.525 4.525 0 0 0 21.35 9.79a4.525 4.525 0 0 0-3.62-4.432A6.369 6.369 0 0 0 10.705 0z"/>
  <path d="M12 24a.625.625 0 0 1-.625-.625v-8.75a.625.625 0 1 1 1.25 0v8.75A.625.625 0 0 1 12 24z"/>
  <path d="M12 17.375a.625.625 0 0 1-.442-1.067l2.188-2.187a.625.625 0 1 1 .884.884l-2.188 2.187a.622.622 0 0 1-.442.183z"/>
  <path d="M12 17.375a.622.622 0 0 1-.442-.183l-2.188-2.187a.625.625 0 1 1 .884-.884l2.188 2.187A.625.625 0 0 1 12 17.375z"/>
</svg>
